<svg
   transform="scale(2)"
   xmlns="http://www.w3.org/2000/svg"
   height="50"
   width="60"
   viewBox="-30 -25 120 100"
   style="background-color:#0066ff"
   version="1.1">
  <path
     d="M 15 45 Q 15 27 10 15 Q 17 27 15 45"
     fill="white"
     id="path1" />
  <path
     d="M 35 45 Q 38 27 45 15 Q 36 27 35 45"
     fill="white"
     id="path2" />
  <path
     d="M 10.851806,6.3999736 10.375232,10.700675 13.647869,13.531401 9.4103888,14.407142 7.7295092,18.394347 5.5871773,14.634882 1.2756987,14.268386 4.1891455,11.069168 3.205385,6.8554547 7.1483261,8.6376945 Z"
     fill="none"
     stroke-width="1"
     stroke="#ffffff"
     id="path3" />
  <path
     d="m 50.092848,5.1755454 -0.0553,4.3266736 3.532858,2.498415 -4.132,1.28442 -1.284421,4.132001 -2.498414,-3.532859 -4.326674,0.0553 2.587895,-3.467848 -1.389611,-4.0978217 4.097822,1.3896112 z"
     fill="none"
     stroke-width="1"
     stroke="#ffffff"
     id="path4" />
  <path
     d="M 0 50 Q 20 38 60 50 Q 20 42 0 50"
     fill="white"
     id="path5" />
</svg>
